<svg width="696" height="501" viewBox="0 0 696 501" fill="none" xmlns="http://www.w3.org/2000/svg">
<path d="M609.124 146.392L619.377 143.728V183.531L609.124 186.195V146.392Z" fill="#EEEEEE"/>
<path d="M609.124 146.391L598.363 142.637V182.44L609.124 186.195V146.391Z" fill="#CFCFCF"/>
<path d="M640.366 161.944L650.619 159.281V199.084L640.366 201.748V161.944Z" fill="#EEEEEE"/>
<path d="M640.366 161.944L629.605 158.19V197.993L640.366 201.748V161.944Z" fill="#CFCFCF"/>
<path d="M676.294 181.078L686.547 178.414C684.643 191.955 684.03 200.026 686.547 218.218C686.547 218.218 677.233 225.396 676.764 225.031C676.294 224.665 676.294 181.078 676.294 181.078Z" fill="#EEEEEE"/>
<path d="M676.294 181.078L665.533 177.323V217.127L676.294 220.882V181.078Z" fill="#CFCFCF"/>
<path d="M353.851 188.473L421.833 177.846L364.665 209.524C363.1 210.39 361.13 209.705 360.442 208.055L354.106 192.867L353.851 188.473Z" fill="#DDDDDD"/>
<path d="M421.833 177.846L430.983 157.725L693.255 181.136C696.256 183.267 695.659 181.086 695.659 184.296C695.659 187.505 695.948 192.008 693.464 192.827C690.98 193.646 421.833 177.846 421.833 177.846Z" fill="#DDDDDD"/>
<path d="M353.851 188.473L421.833 177.846L430.983 157.725L353.851 188.473Z" fill="#DDDDDD"/>
<path d="M403.203 66.5583L395.774 26.4812C399.875 27.7676 677.472 191.398 677.472 191.398V225.445L403.203 66.5583Z" fill="#DDDDDD"/>
<path d="M402.58 156.967L421.833 173.515L364.558 205.251C363.032 206.096 361.11 205.467 360.38 203.882L353.41 188.753C352.763 187.349 353.289 185.683 354.624 184.905L402.58 156.967Z" fill="#FAFAFA"/>
<path d="M430.982 153.394L402.58 156.967C402.58 156.967 365.165 10.8397 365.427 7.55294C365.688 4.26621 368.43 2.18402 373.468 0.457489C378.506 -1.26904 389.197 2.4475 389.197 2.4475L430.982 153.394Z" fill="#FAFAFA"/>
<path d="M421.833 173.515L430.982 153.394L689.457 175.101C692.458 177.232 694.356 177.556 695.216 179.983C696.075 182.411 695.947 187.677 693.463 188.496C690.979 189.315 421.833 173.515 421.833 173.515Z" fill="#FAFAFA"/>
<path d="M397.69 29.8981C397.008 29.5046 396.509 28.8589 396.299 28.1005L389.197 2.4475C393.298 3.73388 689.457 175.101 689.457 175.101L642.968 171.197C642.528 171.16 642.101 171.026 641.719 170.805L397.69 29.8981Z" fill="#FAFAFA"/>
<path d="M402.58 156.967L421.833 173.515L430.982 153.394L402.58 156.967Z" fill="#FAFAFA"/>
<g opacity="0.29" filter="url(#filter0_f_0_46)">
<path d="M31.7478 370.453C16.0969 360.825 14.427 338.715 28.4543 326.845L254.409 135.647C263.334 128.095 276.105 127.145 286.049 133.294L498.138 264.433C514.908 274.802 515.269 299.066 498.815 309.929L240.439 480.517C231.678 486.301 220.358 486.482 211.416 480.981L31.7478 370.453Z" fill="#494949"/>
</g>
<ellipse cx="81.6675" cy="331.92" rx="20.8066" ry="19.8609" fill="#323232"/>
<path d="M49.5281 322.32L83.5591 336.648L131.793 239.235L118.489 232.14C117.916 231.835 117.245 231.724 116.605 231.831C65.0381 240.454 49.352 292.465 47.7196 319.461C47.6443 320.705 48.3797 321.836 49.5281 322.32Z" fill="url(#paint0_linear_0_46)"/>
<path d="M182.864 179.653L289.709 239.988L147.871 324.354L82.6133 289.361L182.864 179.653Z" fill="url(#paint1_linear_0_46)"/>
<path d="M82.6134 289.361L81.6834 360.97C81.6737 361.716 82.0797 362.405 82.7366 362.758L145.033 396.231L147.871 324.354L82.6134 289.361Z" fill="url(#paint2_linear_0_46)"/>
<path d="M145.033 396.231L304.866 312.059L285.733 242.373L147.871 324.354L145.033 396.231Z" fill="url(#paint3_linear_0_46)"/>
<path d="M84.1843 305.767V317.307L106.027 328.817V317.436L84.1843 305.767Z" fill="url(#paint4_linear_0_46)"/>
<path d="M188.538 177.761L273.656 225.995L274.602 123.853L208.399 85.0772L188.538 177.761Z" fill="url(#paint5_linear_0_46)"/>
<path d="M288.788 122.907L354.991 84.1314L373.906 166.412L289.734 223.158L288.788 122.907Z" fill="url(#paint6_linear_0_46)"/>
<path d="M282.168 26.4402L202.724 73.7281L282.168 121.016L362.557 73.7281L282.168 26.4402Z" fill="url(#paint7_linear_0_46)"/>
<path fill-rule="evenodd" clip-rule="evenodd" d="M381.472 170.195L362.557 73.7281L282.168 121.016L285.376 242.361L290.841 240.576L292.218 232.462L381.472 170.195ZM354.991 84.1314L288.788 122.907L289.734 223.158L373.906 166.412L354.991 84.1314Z" fill="url(#paint8_linear_0_46)"/>
<path fill-rule="evenodd" clip-rule="evenodd" d="M202.724 73.7281L181.777 180.748L285.376 242.361L282.168 121.016L202.724 73.7281ZM273.656 225.995L188.538 177.761L208.399 85.0772L274.602 123.853L273.656 225.995Z" fill="url(#paint9_linear_0_46)"/>
<path d="M123.594 325.123V336.663L145.437 348.174V336.792L123.594 325.123Z" fill="url(#paint10_linear_0_46)"/>
<path d="M90.9977 337.695V365.272L133.514 387.999V360.861L90.9977 337.695Z" fill="url(#paint11_linear_0_46)"/>
<path d="M305.812 323.408C292.949 315.842 291.625 301.34 292.571 295.035L326.619 228.832L372.961 225.049L355.937 354.618L305.812 323.408Z" fill="#222222"/>
<path d="M281.603 283.862L337.325 314.189C357.186 213.939 408.926 197.885 443.193 201.189C443.193 201.189 439.642 197.329 437.554 195.806C435.466 194.284 433.6 193.408 433.6 193.408L421.506 188.231C362.869 184.448 281.603 242.248 281.603 283.862Z" fill="#7F161F"/>
<path d="M275.859 281.988L328.527 309.541C329.122 309.852 329.854 309.476 329.982 308.817C350.079 205.583 421.35 185.828 435.98 194.72L389.573 166.141C331.195 162.375 273.969 238.642 275.327 281.157C275.338 281.513 275.543 281.823 275.859 281.988Z" fill="url(#paint12_linear_0_46)"/>
<ellipse cx="399.03" cy="277.533" rx="52.7733" ry="88.3982" transform="rotate(27.2821 399.03 277.533)" fill="#414141"/>
<ellipse cx="403.1" cy="279.373" rx="29.0644" ry="49.3849" transform="rotate(32.2448 403.1 279.373)" fill="white"/>
<path d="M169.061 418.601C161.494 414.062 161.847 391.399 161.531 386.04L232.043 333.811L212.484 442.884L169.061 418.601Z" fill="#323232"/>
<path d="M157.739 397.372L192.63 416.656C193.848 417.329 195.367 416.56 195.602 415.189C205.748 355.848 241.977 333.354 270.837 337.078C270.837 337.078 269.768 333.705 266.888 331.895C264.009 330.085 252.729 323.086 252.729 323.086L233.223 310.657C179.948 312.42 159.92 359.575 156.718 395.474C156.649 396.255 157.052 396.992 157.739 397.372Z" fill="url(#paint13_linear_0_46)"/>
<path d="M150.192 393.53L185.084 412.814C186.301 413.487 187.821 412.72 188.057 411.349C198.316 351.966 238.175 328.196 267.036 331.92L226.368 306.492C173.093 308.255 152.389 355.726 149.172 391.632C149.102 392.414 149.506 393.151 150.192 393.53Z" fill="url(#paint14_linear_0_46)"/>
<ellipse cx="237.554" cy="387.557" rx="39.0502" ry="60.9167" transform="rotate(27.2821 237.554 387.557)" fill="#585858"/>
<ellipse cx="243.25" cy="392.255" rx="21.4238" ry="34.4912" transform="rotate(27.2821 243.25 392.255)" fill="white"/>
<defs>
<filter id="filter0_f_0_46" x="2.89398" y="113.258" width="524.045" height="387.727" filterUnits="userSpaceOnUse" color-interpolation-filters="sRGB">
<feFlood flood-opacity="0" result="BackgroundImageFix"/>
<feBlend mode="normal" in="SourceGraphic" in2="BackgroundImageFix" result="shape"/>
<feGaussianBlur stdDeviation="8" result="effect1_foregroundBlur_0_46"/>
</filter>
<linearGradient id="paint0_linear_0_46" x1="68.6004" y1="254.748" x2="156.489" y2="359.88" gradientUnits="userSpaceOnUse">
<stop stop-color="#EC6060"/>
<stop offset="0.8397" stop-color="#7F2626"/>
</linearGradient>
<linearGradient id="paint1_linear_0_46" x1="123.161" y1="179.653" x2="265.485" y2="337.884" gradientUnits="userSpaceOnUse">
<stop stop-color="#FF7575"/>
<stop offset="1" stop-color="#AB1818"/>
</linearGradient>
<linearGradient id="paint2_linear_0_46" x1="73.7815" y1="282.718" x2="172.725" y2="411.78" gradientUnits="userSpaceOnUse">
<stop stop-color="#E75B5B"/>
<stop offset="0.807069" stop-color="#8F1313"/>
</linearGradient>
<linearGradient id="paint3_linear_0_46" x1="193.267" y1="238.353" x2="270.46" y2="348.871" gradientUnits="userSpaceOnUse">
<stop stop-color="#D41E1E"/>
<stop offset="1" stop-color="#710F0F"/>
</linearGradient>
<linearGradient id="paint4_linear_0_46" x1="95.1057" y1="305.767" x2="95.1057" y2="328.817" gradientUnits="userSpaceOnUse">
<stop stop-color="#FBD4B8"/>
<stop offset="1" stop-color="#FCF6F1"/>
</linearGradient>
<linearGradient id="paint5_linear_0_46" x1="207.797" y1="90.9828" x2="277.738" y2="232.021" gradientUnits="userSpaceOnUse">
<stop stop-color="#E1F1F2"/>
<stop offset="0.115" stop-color="white"/>
<stop offset="0.225" stop-color="#E1F1F2"/>
<stop offset="0.54" stop-color="#E1F1F2"/>
<stop offset="0.635" stop-color="white"/>
<stop offset="0.75" stop-color="#E1F1F2"/>
<stop offset="0.87" stop-color="white"/>
<stop offset="0.97" stop-color="#E1F1F2"/>
</linearGradient>
<linearGradient id="paint6_linear_0_46" x1="277.611" y1="123.875" x2="368.212" y2="186.249" gradientUnits="userSpaceOnUse">
<stop stop-color="#E1F1F2"/>
<stop offset="0.09" stop-color="white"/>
<stop offset="0.245" stop-color="#E1F1F2"/>
<stop offset="0.365" stop-color="#E1F1F2"/>
<stop offset="0.48" stop-color="#E1F1F2"/>
<stop offset="0.655" stop-color="white"/>
<stop offset="0.865" stop-color="#E1F1F2"/>
<stop offset="1" stop-color="#E1F1F2"/>
</linearGradient>
<linearGradient id="paint7_linear_0_46" x1="232.583" y1="39.3332" x2="379.079" y2="172.971" gradientUnits="userSpaceOnUse">
<stop stop-color="#EC6060"/>
<stop offset="1" stop-color="#D14242"/>
</linearGradient>
<linearGradient id="paint8_linear_0_46" x1="258.614" y1="115.044" x2="411.077" y2="258.211" gradientUnits="userSpaceOnUse">
<stop stop-color="#7F1111"/>
<stop offset="1" stop-color="#6C0F0F"/>
</linearGradient>
<linearGradient id="paint9_linear_0_46" x1="181.777" y1="58.9131" x2="326.123" y2="315.994" gradientUnits="userSpaceOnUse">
<stop stop-color="#AE1818"/>
<stop offset="1" stop-color="#821111"/>
</linearGradient>
<linearGradient id="paint10_linear_0_46" x1="134.515" y1="325.123" x2="134.515" y2="348.174" gradientUnits="userSpaceOnUse">
<stop stop-color="#FBD4B8"/>
<stop offset="1" stop-color="#FCF6F1"/>
</linearGradient>
<linearGradient id="paint11_linear_0_46" x1="112.256" y1="337.695" x2="112.256" y2="387.999" gradientUnits="userSpaceOnUse">
<stop stop-color="#FBD4B8"/>
<stop offset="1" stop-color="#FCF6F1"/>
</linearGradient>
<linearGradient id="paint12_linear_0_46" x1="342.549" y1="171.166" x2="483.276" y2="304.367" gradientUnits="userSpaceOnUse">
<stop stop-color="#CC3333"/>
<stop offset="0.946605" stop-color="#A71717"/>
</linearGradient>
<linearGradient id="paint13_linear_0_46" x1="203.35" y1="310.333" x2="274.582" y2="402.277" gradientUnits="userSpaceOnUse">
<stop stop-color="#7B1E1E"/>
<stop offset="1" stop-color="#5A0C0C"/>
</linearGradient>
<linearGradient id="paint14_linear_0_46" x1="195.803" y1="306.492" x2="267.036" y2="398.436" gradientUnits="userSpaceOnUse">
<stop stop-color="#CC3333"/>
<stop offset="1" stop-color="#A71717"/>
</linearGradient>
</defs>
</svg>
