<svg width="155" height="204" viewBox="0 0 155 204" fill="none" xmlns="http://www.w3.org/2000/svg">
<path d="M144.5 128C144.5 133.338 142.951 138.066 140.572 141.396C138.19 144.731 135.125 146.5 132 146.5C128.875 146.5 125.81 144.731 123.428 141.396C121.049 138.066 119.5 133.338 119.5 128C119.5 122.662 121.049 117.934 123.428 114.604C125.81 111.269 128.875 109.5 132 109.5C135.125 109.5 138.19 111.269 140.572 114.604C142.951 117.934 144.5 122.662 144.5 128Z" fill="#433020" stroke="black" stroke-width="5"/>
<path d="M147.5 125C147.5 130.338 145.951 135.066 143.572 138.396C141.19 141.731 138.125 143.5 135 143.5C131.875 143.5 128.81 141.731 126.428 138.396C124.049 135.066 122.5 130.338 122.5 125C122.5 119.662 124.049 114.934 126.428 111.604C128.81 108.269 131.875 106.5 135 106.5C138.125 106.5 141.19 108.269 143.572 111.604C145.951 114.934 147.5 119.662 147.5 125Z" fill="#433020" stroke="black" stroke-width="5"/>
<path d="M8.5 128C8.5 133.338 10.0493 138.066 12.4277 141.396C14.8096 144.731 17.8748 146.5 21 146.5C24.1252 146.5 27.1904 144.731 29.5723 141.396C31.9507 138.066 33.5 133.338 33.5 128C33.5 122.662 31.9507 117.934 29.5723 114.604C27.1904 111.269 24.1252 109.5 21 109.5C17.8748 109.5 14.8096 111.269 12.4277 114.604C10.0493 117.934 8.5 122.662 8.5 128Z" fill="#433020" stroke="black" stroke-width="5"/>
<path d="M5.5 125C5.5 130.338 7.04926 135.066 9.42773 138.396C11.8096 141.731 14.8748 143.5 18 143.5C21.1252 143.5 24.1904 141.731 26.5723 138.396C28.9507 135.066 30.5 130.338 30.5 125C30.5 119.662 28.9507 114.934 26.5723 111.604C24.1904 108.269 21.1252 106.5 18 106.5C14.8748 106.5 11.8096 108.269 9.42773 111.604C7.04926 114.934 5.5 119.662 5.5 125Z" fill="#433020" stroke="black" stroke-width="5"/>
<path d="M149.5 183C149.5 188.338 147.951 193.066 145.572 196.396C143.19 199.731 140.125 201.5 137 201.5C133.875 201.5 130.81 199.731 128.428 196.396C126.049 193.066 124.5 188.338 124.5 183C124.5 177.662 126.049 172.934 128.428 169.604C130.81 166.269 133.875 164.5 137 164.5C140.125 164.5 143.19 166.269 145.572 169.604C147.951 172.934 149.5 177.662 149.5 183Z" fill="#433020" stroke="black" stroke-width="5"/>
<path d="M152.5 180C152.5 185.338 150.951 190.066 148.572 193.396C146.19 196.731 143.125 198.5 140 198.5C136.875 198.5 133.81 196.731 131.428 193.396C129.049 190.066 127.5 185.338 127.5 180C127.5 174.662 129.049 169.934 131.428 166.604C133.81 163.269 136.875 161.5 140 161.5C143.125 161.5 146.19 163.269 148.572 166.604C150.951 169.934 152.5 174.662 152.5 180Z" fill="#433020" stroke="black" stroke-width="5"/>
<path d="M5.5 183C5.5 188.338 7.04926 193.066 9.42773 196.396C11.8096 199.731 14.8748 201.5 18 201.5C21.1252 201.5 24.1904 199.731 26.5723 196.396C28.9507 193.066 30.5 188.338 30.5 183C30.5 177.662 28.9507 172.934 26.5723 169.604C24.1904 166.269 21.1252 164.5 18 164.5C14.8748 164.5 11.8096 166.269 9.42773 169.604C7.04926 172.934 5.5 177.662 5.5 183Z" fill="#433020" stroke="black" stroke-width="5"/>
<path d="M2.5 180C2.5 185.338 4.04926 190.066 6.42773 193.396C8.80963 196.731 11.8748 198.5 15 198.5C18.1252 198.5 21.1904 196.731 23.5723 193.396C25.9507 190.066 27.5 185.338 27.5 180C27.5 174.662 25.9507 169.934 23.5723 166.604C21.1904 163.269 18.1252 161.5 15 161.5C11.8748 161.5 8.80963 163.269 6.42773 166.604C4.04926 169.934 2.5 174.662 2.5 180Z" fill="#433020" stroke="black" stroke-width="5"/>
<rect x="23" y="107" width="112" height="87" rx="20" fill="white" stroke="black" stroke-width="6"/>
<path d="M14 2H145V17.5C145 26.0604 138.06 33 129.5 33H29.5C20.9396 33 14 26.0604 14 17.5V2Z" fill="url(#paint0_linear_1_21)" stroke="black" stroke-width="4"/>
<rect x="31" y="112" width="92" height="53" rx="21" fill="#489829" stroke="black" stroke-width="4"/>
<path d="M64 28.9581V98.5C64 103.747 59.7467 108 54.5 108C49.2533 108 45 103.747 45 98.5V29.1917C45 26.6396 48.1248 25.4058 49.8683 27.2696L50.1646 27.5863C52.7793 30.3813 57.2425 30.2849 59.734 27.3794C61.1994 25.6705 64 26.7069 64 28.9581Z" fill="#489829" stroke="black" stroke-width="4"/>
<path d="M106 28.9581V98.5C106 103.747 101.747 108 96.5 108C91.2533 108 87 103.747 87 98.5V29.1917C87 26.6396 90.1248 25.4058 91.8683 27.2696L92.1646 27.5863C94.7793 30.3813 99.2425 30.2849 101.734 27.3794C103.199 25.6705 106 26.7069 106 28.9581Z" fill="#489829" stroke="black" stroke-width="4"/>
<defs>
<linearGradient id="paint0_linear_1_21" x1="79.5" y1="0" x2="79.5" y2="35" gradientUnits="userSpaceOnUse">
<stop stop-color="white"/>
<stop offset="0.685" stop-color="#3A73DB"/>
</linearGradient>
</defs>
</svg>
